HIERARCHY
ROOT Bip001_Pelvis
{
  OFFSET 34.4345 95.6767 -26.8758
  CHANNELS 6 Xposition Yposition Zposition Zrotation Xrotation Yrotation
  JOINT Bip001_Spine
  {
    OFFSET 1.4188e-005 10.2191 -0.0116013
    CHANNELS 3 Zrotation Xrotation Yrotation
    JOINT Bip001_L_Thigh
    {
      OFFSET 11.0458 -10.2192 0.0116197
      CHANNELS 3 Zrotation Xrotation Yrotation
      JOINT Bip001_L_Calf
      {
        OFFSET -0.707118 -44.0221 0.360014
        CHANNELS 3 Zrotation Xrotation Yrotation
        JOINT Bip001_L_Foot
        {
          OFFSET -0.651902 -40.5938 -3.56146
          CHANNELS 3 Zrotation Xrotation Yrotation
          JOINT Bip001_L_Toe0
          {
            OFFSET 0.0530839 -10.2181 13.1504
            CHANNELS 3 Zrotation Xrotation Yrotation
            End Site
            {
              OFFSET -1.02532e-005 0 7.55606
            }
          }
        }
      }
    }
    JOINT Bip001_R_Thigh
    {
      OFFSET -11.0458 -10.2191 0.0115893
      CHANNELS 3 Zrotation Xrotation Yrotation
      JOINT Bip001_R_Calf
      {
        OFFSET 0.706994 -44.0221 0.35984
        CHANNELS 3 Zrotation Xrotation Yrotation
        JOINT Bip001_R_Foot
        {
          OFFSET 0.651786 -40.5938 -3.5613
          CHANNELS 3 Zrotation Xrotation Yrotation
          JOINT Bip001_R_Toe0
          {
            OFFSET -0.0531479 -10.2181 13.1504
            CHANNELS 3 Zrotation Xrotation Yrotation
            End Site
            {
              OFFSET -1.02894e-005 0 7.55606
            }
          }
        }
      }
    }
    JOINT Bip001_Spine1
    {
      OFFSET 1.87041e-005 14.5736 1.08638
      CHANNELS 3 Zrotation Xrotation Yrotation
      JOINT Bip001_Spine2
      {
        OFFSET 2.24614e-005 14.5058 -1.69078
        CHANNELS 3 Zrotation Xrotation Yrotation
        JOINT Bip001_Neck
        {
          OFFSET 2.20278e-005 15.3945 -0.489414
          CHANNELS 3 Zrotation Xrotation Yrotation
          JOINT Bip001_L_Clavicle
          {
            OFFSET 6.06036 -0.000579998 0.00836775
            CHANNELS 3 Zrotation Xrotation Yrotation
            JOINT Bip001_L_UpperArm
            {
              OFFSET 11.5509 -0.0600302 0.00193952
              CHANNELS 3 Zrotation Xrotation Yrotation
              JOINT Bip001_L_Forearm
              {
                OFFSET 25.9523 0.0806089 -2.15551
                CHANNELS 3 Zrotation Xrotation Yrotation
                JOINT Bip001_L_Hand
                {
                  OFFSET 32.2475 0.153767 1.63968
                  CHANNELS 3 Zrotation Xrotation Yrotation
                  JOINT Bip001_L_Finger0
                  {
                    OFFSET 6.04639 -2.20976 5.90322
                    CHANNELS 3 Zrotation Xrotation Yrotation
                    End Site
                    {
                      OFFSET 4.22375 -1.43895 0.606485
                    }
                  }
                  JOINT Bip001_L_Finger1
                  {
                    OFFSET 11.0826 -0.704819 -0.198153
                    CHANNELS 3 Zrotation Xrotation Yrotation
                    End Site
                    {
                      OFFSET 6.20027 -0.397518 -0.0787166
                    }
                  }
                }
              }
            }
          }
          JOINT Bip001_R_Clavicle
          {
            OFFSET -6.06037 -0.000563197 0.00835105
            CHANNELS 3 Zrotation Xrotation Yrotation
            JOINT Bip001_R_UpperArm
            {
              OFFSET -11.5509 -0.0599978 0.00190698
              CHANNELS 3 Zrotation Xrotation Yrotation
              JOINT Bip001_R_Forearm
              {
                OFFSET -25.9523 0.0806822 -2.15589
                CHANNELS 3 Zrotation Xrotation Yrotation
                JOINT Bip001_R_Hand
                {
                  OFFSET -32.2475 0.153859 1.63989
                  CHANNELS 3 Zrotation Xrotation Yrotation
                  JOINT Bip001_R_Finger0
                  {
                    OFFSET -6.04641 -2.20976 5.90317
                    CHANNELS 3 Zrotation Xrotation Yrotation
                    End Site
                    {
                      OFFSET -4.22376 -1.43895 0.60647
                    }
                  }
                  JOINT Bip001_R_Finger1
                  {
                    OFFSET -11.0826 -0.704794 -0.198182
                    CHANNELS 3 Zrotation Xrotation Yrotation
                    End Site
                    {
                      OFFSET -6.20028 -0.397504 -0.0787333
                    }
                  }
                }
              }
            }
          }
          JOINT Bip001_Head
          {
            OFFSET 1.09673e-005 11.2744 2.05948
            CHANNELS 3 Zrotation Xrotation Yrotation
            End Site
            {
              OFFSET 2.89576e-005 20.8808 -2.77728e-005
            }
          }
        }
      }
    }
  }
}
MOTION
Frames:	16
Frame Time:	0.04
33.5836 94.7721 -30.3027 -4.01504 2.1675 28.6052 -0.449884 1.89615 2.72607 7.10772 -19.7429 -1.77609 0.306742 22.097 -18.7801 2.91279 -7.93355 0.0674642 1.21757 -3.87512 -1.36708 0.635356 -2.58961 -5.66667 3.18924 9.80459 -2.91167 -12.5304 -3.54264 -23.3002 3.30422 -10.5844 3.12675 -0.996201 3.76904 5.47265 -0.993953 3.76881 5.4723 2.04772 -15.2931 -8.79097 -29.076 13.5163 5.3121 -42.9352 39.14 7.03122 28.1485 7.74607 -47.2716 7.25405 1.77619 -6.86774 -1.59028e-015 3.18055e-015 -0 0 0 -0 6.49851 21.8534 32.3902 25.3817 -43.5019 42.7421 -58.6221 19.0494 61.836 -36.0268 -1.97507 8.55581 -5.1684e-015 0 -2.38542e-015 -3.57812e-015 3.18056e-015 -3.97569e-016 -6.611 11.1789 -5.73823 
33.609 94.7438 -30.0325 -4.1876 2.19451 30.6126 -0.436763 1.92366 2.93663 7.13196 -20.3715 -0.622828 0.578115 22.345 -21.4601 2.51492 -8.23045 0.0654501 1.44155 -3.57687 -1.72029 0.931842 -2.23877 -6.16046 3.30965 9.48765 -2.91053 -12.7739 -3.10854 -24.5458 3.29937 -10.5251 3.05626 -0.972431 3.82233 5.89281 -0.972436 3.82234 5.89284 0.639399 -16.7293 -10.2309 -28.0953 14.3915 7.41268 -43.2652 38.0639 6.96821 27.6104 7.57758 -47.1423 8.05945 1.91305 -6.85524 1.59028e-015 0 6.36111e-015 6.36111e-015 -3.18056e-015 3.18055e-015 2.25527 21.767 35.7245 37.823 -41.8726 57.2004 -84.0296 31.1161 56.6879 -33.6373 -1.75737 3.11388 1.59028e-015 -4.77083e-015 2.18663e-015 1.98785e-015 0 -3.97569e-016 -5.01593 14.7587 -7.55951 
33.5819 94.7378 -29.7371 -3.80839 2.20723 32.0379 -0.624071 1.85131 2.57918 7.14689 -20.0613 0.485844 0.720787 21.9443 -23.3329 1.98324 -8.34589 0.0625872 1.25382 -3.06503 -1.63139 1.01612 -1.8248 -5.91736 3.41077 9.76151 -3.01633 -13.0562 -2.999 -25.5098 3.31786 -10.5316 3.01416 -1.34311 3.67347 5.18522 -1.31833 3.67269 5.18373 5.17133 -13.534 -10.9887 -29.8233 10.0691 7.74349 -46.0226 36.9665 8.66293 26.4116 7.16003 -45.9701 8.55505 1.65478 -6.31675 1.76556e-031 3.18055e-015 -3.18055e-015 -1.59028e-015 0 -0 2.64042 19.6055 34.1022 41.846 -42.4303 67.7736 -90.5475 30.5422 65.9337 -17.9077 -5.86901 -8.05048 -1.59028e-015 1.59028e-015 2.38542e-015 1.59028e-015 3.18056e-015 -7.95139e-016 -7.3949 13.2655 -6.8841 
33.9112 94.7997 -29.5659 -2.44937 1.38985 31.1638 -0.503343 1.92938 2.05085 6.37598 -17.9015 1.10594 1.03987 21.2644 -22.4396 0.978938 -8.79506 0.0443233 1.11556 -2.23503 -1.5713 -0.1518 -0.93477 -6.09097 3.49896 11.034 -2.80729 -12.9842 -3.52389 -24.5109 3.37486 -10.7245 3.07658 -1.09325 3.83942 4.11811 -1.10299 3.83944 4.12147 8.67956 -8.84656 -11.6987 -30.884 5.14716 5.67817 -51.4326 34.6385 12.4495 25.9239 8.18262 -44.6364 8.15996 2.55424 -5.17836 4.77083e-015 6.36111e-015 6.36111e-015 1.59028e-015 3.18056e-015 6.36111e-015 -3.95401 11.7471 31.6069 29.8047 -30.5261 66.1083 -75.2231 32.4772 54.3683 -30.3272 -2.10715 6.39763 9.93923e-016 -6.36111e-015 2.18663e-015 9.93923e-016 -6.36111e-015 2.48481e-015 -10.0935 10.2414 -6.04275 
34.1903 95.0299 -29.4712 -1.31834 0.540267 26.7742 -0.207724 2.09657 1.73203 6.13844 -14.9232 1.76182 0.665769 19.9674 -18.1 -0.888649 -9.6731 -0.00727053 0.588133 -0.793367 -1.25081 -1.40865 -0.465691 -5.53466 2.90965 11.5057 -2.66206 -12.2382 -4.11348 -21.3959 3.34125 -10.7076 3.19747 -0.481225 4.18586 3.47501 -0.480261 4.18576 3.47519 7.01507 -8.24695 -11.3618 -30.8877 4.8289 5.55367 -54.2904 36.2816 16.0469 27.0286 8.88549 -43.3631 7.0914 3.42558 -4.84433 -3.18055e-015 -9.54166e-015 3.18055e-015 1.59028e-015 -9.54167e-015 3.18055e-015 -7.07795 9.37595 31.6286 21.8326 -20.1976 66.953 -58.2285 24.593 45.7887 -38.5057 0.87947 12.1233 3.18055e-015 0 -9.54166e-015 4.77083e-015 6.36111e-015 -9.54166e-015 -9.52736 10.1929 -6.24135 
34.3233 95.224 -29.3979 -0.449536 0.0820454 20.9063 -0.195302 2.22154 1.66319 6.11475 -11.8706 3.82306 0.403351 18.0253 -14.4445 -1.46703 -9.78073 -0.0232757 0.483079 -0.680972 -1.13991 -2.44841 -0.623961 -4.80953 2.06657 11.6684 -2.18468 -11.3207 -5.16367 -17.5687 3.22931 -10.5658 3.3498 -0.454743 4.43647 3.33767 -0.454962 4.43651 3.33764 5.04819 -8.49887 -10.1415 -29.214 5.69952 5.9493 -55.8624 41.6977 17.4873 27.0404 9.71214 -41.2615 5.67196 4.48814 -4.50114 -4.77083e-015 -9.54166e-015 1.59028e-015 -6.36111e-015 -9.54167e-015 1.59028e-015 -6.28382 9.91556 33.2839 19.7544 -14.8516 67.3131 -63.0589 24.5775 52.176 -34.8324 2.13185 12.5435 -2.64834e-031 6.36111e-015 2.38542e-015 -3.97252e-031 9.54167e-015 2.38542e-015 -7.58504 10.5654 -6.11815 
34.3038 95.2067 -29.5158 -0.0204979 -0.0427579 15.8083 -0.151198 2.17832 1.76225 5.72529 -9.96133 4.62652 0.277029 16.8382 -11.4458 0.532939 -8.73886 0.0339206 0.828579 -2.35869 -1.12242 -3.39028 -1.53747 -4.74478 1.60603 12.524 -1.46972 -10.6834 -6.61067 -14.1246 3.13222 -10.4058 3.43498 -0.369815 4.35094 3.53405 -0.369818 4.35094 3.53407 4.59586 -8.30903 -9.58164 -28.3952 6.02394 5.03598 -58.985 48.6901 19.8336 27.5444 9.69928 -38.9272 5.93111 3.75125 -4.59961 -6.36111e-015 0 1.59028e-015 -3.18055e-015 3.18056e-015 -0 -5.64093 10.0108 33.8276 20.152 -9.29838 67.1865 -72.9444 25.8385 61.4335 -32.0045 -3.1012 15.46 6.36111e-015 3.18055e-015 -9.54166e-015 7.95139e-015 0 -7.95139e-015 -6.38567 10.255 -6.07694 
34.1142 95.2219 -29.607 0.15672 -0.609234 11.8946 -0.114398 2.19818 1.74601 5.75969 -8.27719 2.97116 -0.494103 16.0182 -6.31919 1.43433 -8.11823 0.0461136 1.16157 -3.13436 -1.27644 -3.82977 -2.01394 -4.64364 1.45869 13.2187 -0.855803 -10.1453 -7.54502 -11.4497 3.02881 -10.1904 3.45534 -0.290423 4.3918 3.49547 -0.295139 4.39181 3.49685 5.89774 -7.78771 -9.0776 -28.6992 5.60444 4.46162 -60.6424 51.3753 20.5914 26.9328 8.78733 -37.7906 5.34321 3.94813 -3.98313 1.76556e-031 6.36111e-015 -1.59028e-015 3.18055e-015 3.18056e-015 -1.59028e-015 -3.89627 10.58 33.3932 21.5832 -3.81177 63.2841 -73.4037 20.1261 71.9018 -22.5675 -4.62857 16.6954 -1.59028e-015 -3.18055e-015 -1.59028e-015 -3.18055e-015 -6.36111e-015 -7.95139e-016 -6.82945 9.14081 -5.23319 
33.7684 95.2737 -29.7017 -0.0332116 -0.998655 9.11925 0.0874034 2.16756 1.65323 6.01314 -7.21995 3.76828 -0.423074 15.6543 -4.36411 0.842002 -8.29669 0.0409203 1.10533 -3.00453 -1.14908 -3.7607 -2.24439 -3.90341 1.28627 13.2319 -0.610875 -9.757 -7.80713 -9.84378 2.91276 -9.89272 3.40604 0.0761424 4.33628 3.30484 0.102143 4.33621 3.31039 6.36475 -7.00908 -8.53505 -29.2321 5.28897 2.86812 -60.1448 50.5418 19.2768 25.5082 8.88358 -36.1921 5.98881 3.9968 -3.98805 3.18055e-015 0 -1.59028e-015 6.36111e-015 6.36111e-015 -1.59028e-015 0.230616 11.6776 32.7121 21.1313 1.55585 55.6863 -74.6406 17.1563 81.8823 -27.1648 -5.12277 13.8847 1.76556e-031 3.18055e-015 -3.18055e-015 1.76556e-031 3.18056e-015 -3.18055e-015 -6.69485 8.45448 -4.69359 
33.4776 95.3612 -29.71 0.361178 -1.47012 7.05998 0.11175 2.33807 1.19573 5.82348 -5.67372 5.50945 -0.272865 14.1389 -3.81654 0.670663 -7.62113 0.0298374 1.09115 -3.06936 -1.09532 -4.03155 -2.41074 -3.02289 1.09451 13.4449 -0.434404 -9.39972 -8.20343 -8.64129 2.82133 -9.64035 3.33727 0.175732 4.67796 2.38993 0.17517 4.67796 2.38988 5.46581 -6.48729 -6.99031 -28.4334 5.34008 2.53872 -57.7527 48.4524 15.4925 24.8924 8.92032 -34.7845 5.66247 3.65395 -4.05993 -0 -3.18055e-015 -0 3.18055e-015 -3.18056e-015 -0 6.54562 13.7773 33.5321 20.697 6.44194 43.3753 -75.9232 12.4176 88.5765 -28.0789 -5.12822 12.2768 -2.38542e-015 -1.27222e-014 -3.18055e-015 -3.97569e-015 -6.36111e-015 -2.38542e-015 -5.0598 7.42233 -3.84659 
33.3243 95.4509 -29.72 0.908605 -1.95535 6.05375 0.109956 2.46908 0.812241 5.32834 -4.22668 7.06953 0.0360186 12.492 -4.0554 -0.0945797 -7.19561 0.0268755 0.817362 -2.74143 -0.78446 -4.59658 -2.27599 -3.50405 0.953313 13.6224 -0.272662 -8.95123 -8.71962 -7.19035 2.76231 -9.45234 3.25783 0.187326 4.93927 1.61948 0.186594 4.93936 1.62063 3.42338 -7.26553 -5.82595 -26.8132 6.69551 2.38841 -55.4478 46.0207 12.1911 24.3345 8.3802 -34.0794 5.19554 3.23463 -4.25462 3.18055e-015 -3.18055e-015 -1.59028e-015 -3.18055e-015 3.18056e-015 -0 13.2026 16.4431 32.1681 22.9303 11.7831 28.2269 -75.7102 7.98456 91.5128 -27.9418 -4.59224 11.0594 2.18663e-015 9.54166e-015 -7.95139e-016 2.98177e-015 9.54167e-015 -7.95139e-016 -2.50905 8.1098 -3.98862 
33.1544 95.5788 -29.8092 1.25777 -1.73154 5.28501 0.0830716 2.42384 0.722148 4.99371 -3.44469 8.11166 0.121995 10.7654 -4.13626 -0.6255 -6.44994 0.0252262 0.760716 -2.55348 -0.75608 -5.01262 -2.51427 -3.6388 1.03349 13.3869 -0.394208 -8.57769 -8.86155 -6.3238 2.67936 -9.22322 3.20036 0.135708 4.84853 1.4427 0.135708 4.84853 1.4427 3.39119 -7.46975 -5.51401 -27.187 7.10393 1.85065 -52.8504 44.4023 9.01549 23.0118 6.70859 -33.1026 6.29337 2.36411 -4.69699 -3.18055e-015 0 -1.59028e-015 -3.18055e-015 0 -1.59028e-015 17.4488 17.2879 28.9576 27.5858 16.099 13.5989 -74.8148 7.9687 91.3914 -31.6522 -5.29208 10.5481 -5.56597e-015 -3.18055e-015 1.59028e-015 -4.77083e-015 -3.18056e-015 -0 -2.16826 7.54965 -3.84618 
32.8105 95.7117 -29.7755 1.29374 -1.44501 4.80595 0.0330693 2.32245 0.728418 5.08445 -2.75133 8.27986 0.106935 9.09339 -3.87553 -1.06775 -5.6533 0.0243616 0.656015 -2.53772 -0.507386 -4.73467 -2.4174 -3.54398 0.850076 12.5818 -0.468989 -8.27622 -8.65912 -6.04717 2.56115 -8.93852 3.18096 0.0339212 4.64504 1.45714 0.0351935 4.64508 1.45733 4.85276 -6.74199 -5.74194 -27.9476 6.43447 0.904776 -51.4931 42.7073 6.52749 21.1403 3.86787 -32.0914 8.1026 1.58186 -4.8749 1.76556e-031 6.36111e-015 -1.59028e-015 3.18055e-015 6.36111e-015 -1.59028e-015 18.0931 16.2211 25.8915 35.6843 16.9932 1.88423 -73.8957 12.4856 88.7101 -31.8647 -7.30161 10.0147 7.95139e-016 1.19271e-015 -6.36111e-015 -1.19271e-015 3.97569e-016 -3.18055e-015 -3.56928 5.47097 -3.35184 
32.5142 95.8321 -29.7216 1.03506 -1.35334 4.50345 0.04736 2.25768 0.468773 5.42271 -2.13221 8.2011 0.0575544 7.88935 -3.34181 -1.28174 -5.04774 0.028119 0.526566 -2.53727 -0.350965 -4.20889 -1.89334 -2.9742 0.717764 11.2439 -0.760313 -7.86919 -8.20618 -5.78895 2.43496 -8.61209 3.14017 0.0780869 4.51587 0.936625 0.0770051 4.51584 0.936646 5.37765 -4.60375 -4.92639 -27.5475 4.77483 -0.5334 -50.8111 40.7588 4.41281 19.9617 1.67378 -31.5263 9.82662 1.38545 -5.01136 -3.53112e-031 -6.36111e-015 -3.18055e-015 3.18055e-015 -6.36111e-015 -3.18055e-015 18.6397 13.8549 24.8472 42.6422 15.9027 -7.84868 -69.7367 17.2998 82.4226 -29.444 -7.68919 9.1857 3.97251e-031 2.38542e-015 -9.54166e-015 -1.59028e-015 1.59028e-015 -9.54166e-015 -3.97795 1.40029 -2.45753 
32.4196 95.9005 -29.5849 1.30705 -0.919169 4.27759 -0.00897273 2.1573 0.0645566 5.06416 -1.44174 9.18925 0.219225 6.13223 -3.76326 -1.59099 -4.28843 0.0340443 0.381053 -2.57474 -0.18855 -4.49459 -1.80145 -3.68423 0.685931 10.5985 -0.748575 -7.20195 -8.45895 -4.36975 2.32813 -8.03908 2.6488 -0.00717698 4.31456 0.132153 -0.0144274 4.31453 0.130362 5.68395 -3.83533 -3.66268 -27.663 4.38778 -1.02315 -50.3138 37.8901 2.73271 18.6637 -0.374419 -31.6862 10.3876 1.8318 -4.87185 3.53112e-031 -6.36111e-015 3.18055e-015 3.18055e-015 -3.18056e-015 -0 18.5654 12.7131 23.8766 49.7711 18.4629 -13.941 -64.14 21.426 69.3424 -27.8489 -7.5528 8.22119 1.76556e-031 -3.18055e-015 3.18055e-015 3.18055e-015 -4.77083e-015 6.36111e-015 -4.62402 -0.188477 -1.04481 
32.305 95.9218 -29.6186 1.30394 -0.778481 3.07616 0.0237228 2.07012 -0.0616743 4.81499 -0.847542 10.1135 0.545211 5.18725 -3.51164 -1.56629 -3.7353 0.0355208 0.46857 -2.92169 -0.20067 -4.60399 -1.97917 -3.24081 0.769973 10.3797 -0.846897 -6.72278 -8.61096 -3.36901 2.23868 -7.62722 2.38313 0.0476343 4.14021 -0.124683 0.0488564 4.14023 -0.12443 5.50482 -3.55691 -2.5011 -27.6422 4.52123 -1.55666 -50.2841 35.6939 1.77217 17.3259 -2.41129 -32.103 10.6239 1.91769 -4.5144 3.18055e-015 3.18055e-015 6.36111e-015 6.36111e-015 3.18056e-015 6.36111e-015 19.162 11.9249 22.2108 54.461 20.1023 -17.0652 -54.862 22.1743 56.2266 -19.7756 -7.20945 7.65564 -6.36111e-015 -3.18055e-015 3.18055e-015 -2.20695e-031 -3.97569e-015 -3.18055e-015 -4.70559 -0.723714 0.0542967 
